<svg xmlns="http://www.w3.org/2000/svg" viewBox="0 0 155.000 68.648" fill="#000">
<path fill-rule="evenodd" d="M0.000,0.000L29.988,0.000L30.711,0.181L31.434,0.181L32.156,0.361L32.518,0.361L35.480,1.192L35.697,1.337L36.384,1.554L38.551,2.638L41.153,4.372L41.586,4.841L42.237,5.275L43.863,6.901L44.296,7.551L44.946,8.166L45.380,8.816L46.211,9.611L46.645,10.261L47.295,10.875L47.729,11.526L48.198,11.959L48.632,12.610L49.102,13.043L49.535,13.693L50.005,14.127L50.438,14.777L50.908,15.211L51.342,15.861L51.811,16.295L52.245,16.945L53.076,17.740L53.509,18.390L53.979,18.824L54.413,19.474L54.882,19.908L55.316,20.558L55.966,21.173L56.400,21.823L56.870,22.256L57.303,22.907L57.953,23.521L59.110,25.075L59.579,25.508L60.013,26.159L60.663,26.773L61.819,28.326L62.470,28.941L62.903,29.591L63.373,30.025L63.807,30.675L64.276,31.108L64.710,31.759L65.180,32.192L65.613,32.843L66.264,33.457L66.697,34.107L67.167,34.541L67.600,35.191L68.070,35.625L68.504,36.275L69.154,36.889L69.588,37.540L70.057,37.973L70.491,38.624L71.141,39.238L71.575,39.888L72.044,40.322L72.478,40.972L72.948,41.406L73.381,42.056L73.851,42.490L75.007,44.043L75.657,44.657L76.091,45.308L76.561,45.741L76.994,46.392L77.464,46.825L77.898,47.476L78.367,47.909L78.801,48.560L79.451,49.174L79.885,49.824L80.354,50.258L80.788,50.908L81.258,51.342L81.691,51.992L82.342,52.606L83.498,54.160L84.148,54.774L84.582,55.424L85.232,56.039L85.666,56.689L86.316,57.303L86.750,57.953L87.219,58.387L87.653,59.037L88.303,59.652L88.737,60.302L89.206,60.736L89.640,61.386L90.290,62.000L90.724,62.650L91.374,63.265L91.808,63.915L92.458,64.529L92.892,65.180L93.361,65.613L93.795,66.264L94.626,67.058L95.060,67.709L95.421,68.070L95.565,68.106L95.565,68.287L95.746,68.287L95.746,68.648L73.345,68.648L72.622,68.467L71.177,68.467L67.709,67.781L64.782,66.733L62.976,65.830L60.013,63.915L59.290,63.373L59.037,63.084L58.387,62.650L56.508,60.736L55.858,60.302L55.497,59.941L55.063,59.290L53.329,57.592L52.895,56.942L51.884,55.966L51.450,55.316L50.619,54.521L50.185,53.871L49.354,53.076L48.921,52.426L48.090,51.631L47.656,50.980L46.825,50.185L46.392,49.535L45.741,48.921L45.308,48.270L44.657,47.656L44.224,47.006L43.573,46.392L43.140,45.741L42.309,44.946L41.875,44.296L41.044,43.501L40.611,42.851L40.141,42.417L39.708,41.767L39.238,41.333L38.804,40.683L37.793,39.708L37.359,39.057L36.709,38.443L36.275,37.793L35.444,36.998L35.011,36.347L34.541,35.914L34.107,35.263L33.457,34.649L33.023,33.999L32.192,33.204L31.759,32.554L31.108,31.939L30.675,31.289L30.205,30.856L29.772,30.205L29.121,29.591L28.688,28.941L27.857,28.146L27.423,27.495L26.592,26.701L26.159,26.050L25.328,25.255L24.894,24.605L24.244,23.991L23.810,23.340L22.979,22.546L22.546,21.895L21.895,21.281L21.462,20.631L20.450,19.655L20.016,19.005L19.366,18.390L18.932,17.740L17.921,16.765L17.487,16.114L16.656,15.319L16.223,14.669L14.850,13.332L14.416,12.682L11.598,9.900L11.164,9.249L9.719,7.804L9.069,7.371L7.190,5.456L6.540,5.022L5.925,4.372L5.275,3.938L5.022,3.649L2.854,2.023L0.397,0.325L0.361,0.181L0.000,0.181L0.000,0.000ZM125.084,0.072L125.373,0.000L155.000,0.000L155.000,0.181L154.639,0.181L154.603,0.325L151.423,2.385L148.894,4.191L148.641,4.480L145.642,6.720L145.209,7.190L144.559,7.624L143.944,8.274L143.294,8.707L142.318,9.719L141.668,10.153L139.609,12.248L138.597,13.043L131.841,19.836L131.190,20.269L130.648,20.811L130.215,21.462L129.492,22.184L128.842,22.618L121.724,29.772L121.074,30.205L120.098,31.217L119.448,31.650L119.195,31.939L117.750,33.023L116.232,34.035L114.426,35.119L112.980,35.842L112.294,36.058L111.174,36.564L109.151,37.251L106.947,37.756L106.585,37.756L105.863,37.937L105.321,37.937L104.598,38.118L80.029,38.118L80.029,37.937L80.210,37.937L80.210,37.756L80.354,37.720L82.956,35.083L83.606,34.649L100.407,17.849L100.841,17.198L105.465,12.610L105.899,11.959L109.259,8.635L109.693,7.985L111.138,6.540L111.788,6.106L112.764,5.094L115.184,3.360L116.593,2.601L117.352,2.096L118.039,1.879L118.617,1.554L121.218,0.723L122.844,0.361L123.205,0.361L123.928,0.181L124.651,0.181L125.084,0.072Z"/>
</svg>